<!DOCTYPE svg PUBLIC "-//W3C//DTD SVG 1.1//EN" "http://www.w3.org/Graphics/SVG/1.1/DTD/svg11.dtd">

<!-- Uploaded to: SVG Repo, www.svgrepo.com, Transformed by: SVG Repo Mixer Tools and Calo from puntoJson.com -->
<svg fill="#000000" width="800px" height="800px" viewBox="0 -10 512 560" version="1.1" xml:space="preserve" xmlns="http://www.w3.org/2000/svg" xmlns:xlink="http://www.w3.org/1999/xlink">
<g id="SVGRepo_bgCarrier" stroke-width="0"/>
<g id="SVGRepo_tracerCarrier" stroke-linecap="round" stroke-linejoin="round"/>
<g id="SVGRepo_iconCarrier"> <g id="_x35_80_x2C__search_x2C__medical_x2C__glass"> <g> <g> <g> <g> <g> <path d="M256.347,230.957c-49.626,0-90-40.374-90-90s40.374-90,90-90c49.626,0,90,40.374,90,90 S305.974,230.957,256.347,230.957z M256.347,70.957c-38.598,0-70,31.402-70,70s31.402,70,70,70s70-31.402,70-70 S294.945,70.957,256.347,70.957z"/> </g> <g> <path d="M276.347,324.329c-1.462,0-2.928-0.32-4.29-0.968c-3.36-1.596-6.963-2.405-10.709-2.405s-7.35,0.81-10.709,2.405 c-3.098,1.473-6.734,1.254-9.634-0.579c-2.899-1.832-4.657-5.023-4.657-8.453v-53.791c0-2.795,1.17-5.463,3.226-7.356 c2.057-1.894,4.808-2.84,7.597-2.609c3.084,0.254,6.172,0.384,9.177,0.384c6.121,0,12.292-0.515,18.345-1.531 c2.896-0.489,5.869,0.328,8.114,2.228c2.246,1.9,3.541,4.692,3.541,7.634v55.042c0,3.43-1.758,6.621-4.657,8.453 C280.066,323.809,278.21,324.329,276.347,324.329z M256.347,270.956v30.272c3.298-0.363,6.7-0.363,10,0v-30.657 C263.015,270.827,259.675,270.956,256.347,270.956z"/> </g> <g> <path d="M256.347,270.956c-3.552,0-7.194-0.152-10.823-0.452c-32.403-2.673-62.454-17.334-84.614-41.281 c-22.288-24.084-34.563-55.432-34.563-88.267c0-71.682,58.318-130,130-130s130,58.318,130,130 c0,30.931-11.05,60.9-31.114,84.387c-19.838,23.221-47.266,38.778-77.231,43.806 C270.859,270.348,263.573,270.956,256.347,270.956z M256.347,30.957c-60.654,0-110,49.346-110,110 c0,56.802,44.287,104.951,100.822,109.615c3.085,0.255,6.173,0.384,9.178,0.384c6.121,0,12.292-0.515,18.345-1.531 c53.109-8.911,91.655-54.528,91.655-108.469C366.348,80.302,317.002,30.957,256.347,30.957z"/> </g> <g> <path d="M261.348,500.956c-24.813,0-45-20.187-45-45v-110c0-17.28,10.091-33.24,25.709-40.659 c6.063-2.881,12.553-4.341,19.292-4.341s13.229,1.46,19.291,4.341c15.618,7.42,25.709,23.379,25.709,40.659v110 C306.348,480.77,286.161,500.956,261.348,500.956z M261.348,320.956c-3.746,0-7.35,0.81-10.709,2.405 c-8.682,4.125-14.291,12.993-14.291,22.595v110c0,13.785,11.215,25,25,25s25-11.215,25-25v-110 c0-9.601-5.609-18.47-14.291-22.595C268.696,321.766,265.094,320.956,261.348,320.956z"/> </g> </g> <g> <path d="M216.347,150.957c-5.523,0-10-4.477-10-10c0-25.463,24.372-38.348,25.41-38.884c4.908-2.535,10.94-0.613,13.475,4.294 c2.527,4.891,0.625,10.9-4.246,13.449c-0.326,0.176-14.639,8.03-14.639,21.141C226.347,146.479,221.87,150.957,216.347,150.957 z"/> </g> </g> </g> </g> </g> <g id="Layer_1"/> </g>
</svg>
