<?xml version="1.0" encoding="utf-8"?>

<!DOCTYPE svg PUBLIC "-//W3C//DTD SVG 1.1//EN" "http://www.w3.org/Graphics/SVG/1.1/DTD/svg11.dtd">
<!-- Uploaded to: SVG Repo, www.svgrepo.com, Generator: SVG Repo Mixer Tools -->
<svg fill="#000000" version="1.1" id="Warstwa_1" xmlns="http://www.w3.org/2000/svg" xmlns:xlink="http://www.w3.org/1999/xlink" 
	 width="800px" height="800px" viewBox="0 0 160 160" enable-background="new 0 0 160 160" xml:space="preserve">
<path id="leaf" d="M52.418,122.574c3.651,3.65,7.908,6.498,12.654,8.463c0.105,0.043,0.213,0.082,0.322,0.117
	c3.034,0.961,7.193,3.412,9.772,9.635c0.548,1.324,0.827,2.729,0.832,4.174c0,0.014,0,0.025,0,0.037
	c0,0.016,0.004,0.029,0.004,0.045c0.007,2.502,0.49,4.934,1.441,7.23c0.96,2.313,2.347,4.387,4.122,6.16
	c0.781,0.78,1.805,1.17,2.828,1.17c1.022,0,2.047-0.391,2.828-1.172c1.563-1.563,1.563-4.095,0-5.656
	c-1.029-1.028-1.832-2.229-2.388-3.566c-0.551-1.328-0.83-2.738-0.833-4.195c0-0.006,0.001-0.01,0.001-0.016
	c0-0.012,0-0.023,0-0.037c0.004-1.445,0.283-2.85,0.832-4.174c2.579-6.223,6.737-8.674,9.771-9.635
	c0.109-0.035,0.217-0.074,0.322-0.117c4.75-1.967,9.008-4.814,12.645-8.46c3.65-3.644,6.498-7.9,8.455-12.64
	C118,105.207,119,100.182,119,95c0-23.012-12.348-40.057-22.27-53.753C90.752,32.997,85.59,25.871,83.88,19.03
	c-0.017-0.063-0.047-0.118-0.065-0.18c-0.041-0.137-0.088-0.271-0.145-0.402c-0.05-0.118-0.104-0.231-0.163-0.342
	c-0.062-0.113-0.127-0.22-0.198-0.327c-0.072-0.11-0.149-0.216-0.233-0.318c-0.08-0.097-0.165-0.188-0.255-0.277
	c-0.092-0.092-0.186-0.179-0.284-0.261s-0.203-0.157-0.312-0.229c-0.107-0.073-0.218-0.14-0.332-0.202
	c-0.109-0.06-0.224-0.112-0.338-0.162c-0.134-0.056-0.267-0.104-0.404-0.145c-0.063-0.019-0.117-0.049-0.18-0.065
	c-0.056-0.014-0.111-0.013-0.166-0.024c-0.139-0.029-0.277-0.048-0.419-0.062c-0.132-0.013-0.262-0.022-0.393-0.022
	c-0.12,0-0.239,0.008-0.359,0.02c-0.152,0.014-0.301,0.034-0.45,0.065c-0.051,0.011-0.102,0.01-0.153,0.022
	c-0.06,0.015-0.111,0.043-0.169,0.061c-0.145,0.043-0.286,0.093-0.425,0.152c-0.11,0.047-0.216,0.097-0.32,0.153
	c-0.121,0.065-0.236,0.135-0.349,0.212c-0.103,0.07-0.203,0.142-0.298,0.22c-0.103,0.085-0.2,0.175-0.294,0.27
	c-0.086,0.087-0.169,0.175-0.247,0.27c-0.086,0.103-0.164,0.211-0.239,0.323c-0.07,0.105-0.136,0.212-0.196,0.323
	s-0.114,0.226-0.164,0.344c-0.056,0.131-0.103,0.265-0.144,0.401c-0.019,0.062-0.049,0.117-0.065,0.18
	c-1.71,6.841-6.873,13.966-12.85,22.217C53.348,54.943,41,71.988,41,95c0,5.173,0.997,10.197,2.963,14.932
	C45.932,114.678,48.777,118.932,52.418,122.574z M69.749,45.94C73.563,40.674,77.245,35.588,80,30.509
	c2.755,5.079,6.438,10.165,10.252,15.431C99.977,59.365,111,74.581,111,95c0,4.119-0.793,8.107-2.361,11.871
	c-1.559,3.77-3.818,7.148-6.725,10.05c-2.857,2.864-6.188,5.104-9.898,6.663c-3.688,1.201-8.382,3.788-12.016,9.302
	c-3.634-5.514-8.326-8.101-12.015-9.302c-3.711-1.559-7.044-3.799-9.91-6.666c-2.896-2.896-5.158-6.277-6.724-10.054
	C49.792,103.105,49,99.114,49,95C49,74.581,60.023,59.365,69.749,45.94z"/>
</svg>